<?xml version="1.0" encoding="utf-8"?>
<!-- Generator: Adobe Illustrator 21.1.0, SVG Export Plug-In . SVG Version: 6.00 Build 0)  -->
<svg version="1.1" id="Layer_1" xmlns="http://www.w3.org/2000/svg" xmlns:xlink="http://www.w3.org/1999/xlink" x="0px" y="0px"
	 viewBox="0 0 603 214.9" style="enable-background:new 0 0 603 214.9;" xml:space="preserve">
<style type="text/css">
	.st0{fill:#FFFFFF;}
</style>
<title>Nike_Logo</title>
<path class="st0" d="M86.4,0c-4.5,9.7-8.8,18-12.3,26.7c-7.1,17.6-11.2,35.8-7.8,55s19.8,36,39,40.3c20.8,4.7,41.1,2,61.2-3.1
	c32.6-8.3,65-17.2,97.4-25.8c37.1-9.9,74.2-19.8,111.3-29.7c31-8.3,62.1-16.5,93.1-24.8C512.3,26.8,556.4,15,600.5,3.2
	c0.9-0.2,1.8-0.1,2.5,0.5c-13.7,5.9-27.3,11.9-41,17.8c-23.2,9.9-46.4,19.8-69.6,29.7c-30.6,13.1-61.2,26.2-91.8,39.3
	c-35.6,15.3-71.1,30.6-106.7,45.9c-27.7,11.9-55.4,23.8-83.2,35.6c-19.1,8.2-38,16.6-57.3,24.4c-29.7,12-60.3,20.8-92.8,18.2
	c-30.5-2.5-55.5-20.9-60-53.7c-2.3-16.2,1-32.2,6.5-47.6c6.5-18.7,15.9-36.3,28-52C50.6,41.4,67,22.5,83,3.2
	C83.7,2.3,84.7,1.6,86.4,0z"/>
</svg>
