<svg id="Layer_1" data-name="Layer 1" xmlns="http://www.w3.org/2000/svg" viewBox="0 0 603 214.91"><defs><style>.cls-1{fill:#231f20;fill-rule:evenodd;}</style></defs><title>Nike_Logo</title><path class="cls-1" d="M86.38,0c-4.51,9.71-8.82,18-12.31,26.7-7.12,17.65-11.17,35.78-7.8,55s19.77,36,39,40.31c20.77,4.71,41.08,2,61.15-3.13,32.56-8.27,65-17.18,97.42-25.84q55.64-14.85,111.27-29.73,46.55-12.41,93.12-24.75Q534.34,20.93,600.45,3.21a3,3,0,0,1,2.55.45c-13.67,5.92-27.33,11.89-41,17.76q-34.75,14.9-69.56,29.7Q446.53,70.74,400.66,90.4,347.3,113.3,294,136.28q-41.55,17.84-83.16,35.58c-19.09,8.16-38,16.62-57.28,24.38-29.72,12-60.3,20.82-92.79,18.21C30.29,212,5.3,193.59.72,160.73c-2.26-16.23,1-32.15,6.49-47.59a183.57,183.57,0,0,1,28-52C50.58,41.36,67,22.45,83,3.2,83.73,2.33,84.66,1.62,86.38,0Z"/></svg>